<svg width="123" height="24" viewBox="0 0 123 24" fill="none" xmlns="http://www.w3.org/2000/svg">
<path d="M0.744 9.36C0.744 8.32 0.928 7.304 1.296 6.312C1.68 5.304 2.232 4.392 2.952 3.576C3.672 2.744 4.552 2.088 5.592 1.608C6.632 1.112 7.816 0.863999 9.144 0.863999C10.712 0.863999 12.064 1.208 13.2 1.896C14.352 2.584 15.208 3.48 15.768 4.584L13.224 6.336C12.936 5.696 12.56 5.192 12.096 4.824C11.632 4.44 11.136 4.176 10.608 4.032C10.08 3.872 9.56 3.792 9.048 3.792C8.216 3.792 7.488 3.96 6.864 4.296C6.256 4.632 5.744 5.072 5.328 5.616C4.912 6.16 4.6 6.768 4.392 7.44C4.2 8.112 4.104 8.784 4.104 9.456C4.104 10.208 4.224 10.936 4.464 11.64C4.704 12.328 5.04 12.944 5.472 13.488C5.92 14.016 6.448 14.44 7.056 14.76C7.68 15.064 8.36 15.216 9.096 15.216C9.624 15.216 10.16 15.128 10.704 14.952C11.248 14.776 11.752 14.496 12.216 14.112C12.68 13.728 13.04 13.232 13.296 12.624L16.008 14.184C15.672 15.032 15.12 15.752 14.352 16.344C13.6 16.936 12.752 17.384 11.808 17.688C10.864 17.992 9.928 18.144 9 18.144C7.784 18.144 6.672 17.896 5.664 17.4C4.656 16.888 3.784 16.216 3.048 15.384C2.328 14.536 1.76 13.592 1.344 12.552C0.944 11.496 0.744 10.432 0.744 9.36ZM25.4051 8.208C24.4291 8.208 23.5571 8.4 22.7891 8.784C22.0211 9.152 21.4691 9.688 21.1331 10.392V18H17.9171V5.424H20.8691V8.112C21.3171 7.248 21.8851 6.568 22.5731 6.072C23.2611 5.576 23.9891 5.304 24.7571 5.256C24.9331 5.256 25.0691 5.256 25.1651 5.256C25.2611 5.256 25.3411 5.264 25.4051 5.28V8.208ZM27.4624 20.448C27.7504 20.512 28.0144 20.568 28.2544 20.616C28.5104 20.664 28.7264 20.688 28.9024 20.688C29.2064 20.688 29.4544 20.608 29.6464 20.448C29.8544 20.304 30.0544 20.032 30.2464 19.632C30.4384 19.248 30.6384 18.704 30.8464 18L25.8784 5.424H29.2144L32.5984 14.712L35.5744 5.424H38.6464L33.3664 20.496C33.1744 21.056 32.8784 21.56 32.4784 22.008C32.0944 22.472 31.6064 22.832 31.0144 23.088C30.4384 23.36 29.7904 23.496 29.0704 23.496C28.8144 23.496 28.5584 23.472 28.3024 23.424C28.0464 23.392 27.7664 23.328 27.4624 23.232V20.448ZM47.9297 18.24C46.9537 18.24 46.0897 18.024 45.3377 17.592C44.6017 17.144 44.0257 16.544 43.6097 15.792V23.112H40.3937V5.424H43.2017V7.584C43.6817 6.848 44.2897 6.272 45.0257 5.856C45.7617 5.424 46.6017 5.208 47.5457 5.208C48.3937 5.208 49.1697 5.376 49.8737 5.712C50.5937 6.048 51.2177 6.52 51.7457 7.128C52.2737 7.72 52.6817 8.408 52.9697 9.192C53.2737 9.96 53.4257 10.792 53.4257 11.688C53.4257 12.904 53.1857 14.008 52.7057 15C52.2417 15.992 51.5937 16.784 50.7617 17.376C49.9457 17.952 49.0017 18.24 47.9297 18.24ZM46.8497 15.504C47.3457 15.504 47.7937 15.4 48.1937 15.192C48.5937 14.984 48.9377 14.704 49.2257 14.352C49.5297 13.984 49.7537 13.576 49.8977 13.128C50.0577 12.664 50.1377 12.184 50.1377 11.688C50.1377 11.16 50.0497 10.672 49.8737 10.224C49.7137 9.776 49.4737 9.384 49.1537 9.048C48.8337 8.696 48.4577 8.424 48.0257 8.232C47.6097 8.04 47.1537 7.944 46.6577 7.944C46.3537 7.944 46.0417 8 45.7217 8.112C45.4177 8.208 45.1217 8.352 44.8337 8.544C44.5457 8.736 44.2897 8.96 44.0657 9.216C43.8577 9.472 43.7057 9.752 43.6097 10.056V13.008C43.8017 13.472 44.0577 13.896 44.3777 14.28C44.7137 14.664 45.0977 14.968 45.5297 15.192C45.9617 15.4 46.4017 15.504 46.8497 15.504ZM62.9766 17.352C62.7046 17.464 62.3766 17.592 61.9926 17.736C61.6086 17.88 61.1926 17.992 60.7446 18.072C60.3126 18.168 59.8726 18.216 59.4246 18.216C58.8326 18.216 58.2886 18.112 57.7926 17.904C57.2966 17.696 56.8966 17.368 56.5926 16.92C56.3046 16.456 56.1606 15.856 56.1606 15.12V7.896H54.5046V5.424H56.1606V1.344H59.3766V5.424H62.0166V7.896H59.3766V14.04C59.3926 14.472 59.5126 14.784 59.7366 14.976C59.9606 15.168 60.2406 15.264 60.5766 15.264C60.9126 15.264 61.2406 15.208 61.5606 15.096C61.8806 14.984 62.1366 14.888 62.3286 14.808L62.9766 17.352ZM70.3189 18.24C69.2949 18.24 68.3749 18.072 67.5589 17.736C66.7429 17.384 66.0469 16.904 65.4709 16.296C64.9109 15.688 64.4789 14.992 64.1749 14.208C63.8709 13.424 63.7189 12.6 63.7189 11.736C63.7189 10.856 63.8709 10.024 64.1749 9.24C64.4789 8.456 64.9109 7.76 65.4709 7.152C66.0469 6.544 66.7429 6.072 67.5589 5.736C68.3749 5.384 69.2949 5.208 70.3189 5.208C71.3429 5.208 72.2549 5.384 73.0549 5.736C73.8709 6.072 74.5669 6.544 75.1429 7.152C75.7189 7.76 76.1509 8.456 76.4389 9.24C76.7429 10.024 76.8949 10.856 76.8949 11.736C76.8949 12.6 76.7429 13.424 76.4389 14.208C76.1509 14.992 75.7189 15.688 75.1429 16.296C74.5829 16.904 73.8949 17.384 73.0789 17.736C72.2629 18.072 71.3429 18.24 70.3189 18.24ZM67.0309 11.736C67.0309 12.472 67.1749 13.128 67.4629 13.704C67.7509 14.264 68.1429 14.704 68.6389 15.024C69.1349 15.344 69.6949 15.504 70.3189 15.504C70.9269 15.504 71.4789 15.344 71.9749 15.024C72.4709 14.688 72.8629 14.24 73.1509 13.68C73.4549 13.104 73.6069 12.448 73.6069 11.712C73.6069 10.992 73.4549 10.344 73.1509 9.768C72.8629 9.192 72.4709 8.744 71.9749 8.424C71.4789 8.104 70.9269 7.944 70.3189 7.944C69.6949 7.944 69.1349 8.112 68.6389 8.448C68.1429 8.768 67.7509 9.216 67.4629 9.792C67.1749 10.352 67.0309 11 67.0309 11.736Z" fill="white"/>
<path d="M78.3456 9.36C78.3456 8.32 78.5296 7.304 78.8976 6.312C79.2816 5.304 79.8336 4.392 80.5536 3.576C81.2736 2.744 82.1536 2.088 83.1936 1.608C84.2336 1.112 85.4176 0.863999 86.7456 0.863999C88.3136 0.863999 89.6656 1.208 90.8016 1.896C91.9536 2.584 92.8096 3.48 93.3696 4.584L90.8256 6.336C90.5376 5.696 90.1616 5.192 89.6976 4.824C89.2336 4.44 88.7376 4.176 88.2096 4.032C87.6816 3.872 87.1616 3.792 86.6496 3.792C85.8176 3.792 85.0896 3.96 84.4656 4.296C83.8576 4.632 83.3456 5.072 82.9296 5.616C82.5136 6.16 82.2016 6.768 81.9936 7.44C81.8016 8.112 81.7056 8.784 81.7056 9.456C81.7056 10.208 81.8256 10.936 82.0656 11.64C82.3056 12.328 82.6416 12.944 83.0736 13.488C83.5216 14.016 84.0496 14.44 84.6576 14.76C85.2816 15.064 85.9616 15.216 86.6976 15.216C87.2256 15.216 87.7616 15.128 88.3056 14.952C88.8496 14.776 89.3536 14.496 89.8176 14.112C90.2816 13.728 90.6416 13.232 90.8976 12.624L93.6096 14.184C93.2736 15.032 92.7216 15.752 91.9536 16.344C91.2016 16.936 90.3536 17.384 89.4096 17.688C88.4656 17.992 87.5296 18.144 86.6016 18.144C85.3856 18.144 84.2736 17.896 83.2656 17.4C82.2576 16.888 81.3856 16.216 80.6496 15.384C79.9296 14.536 79.3616 13.592 78.9456 12.552C78.5456 11.496 78.3456 10.432 78.3456 9.36ZM94.6547 14.28C94.6547 13.464 94.8787 12.752 95.3267 12.144C95.7907 11.52 96.4307 11.04 97.2467 10.704C98.0627 10.368 98.9987 10.2 100.055 10.2C100.583 10.2 101.119 10.24 101.663 10.32C102.207 10.4 102.679 10.528 103.079 10.704V10.032C103.079 9.232 102.839 8.616 102.359 8.184C101.895 7.752 101.199 7.536 100.271 7.536C99.5827 7.536 98.9267 7.656 98.3027 7.896C97.6787 8.136 97.0227 8.488 96.3347 8.952L95.3027 6.84C96.1347 6.296 96.9827 5.888 97.8467 5.616C98.7267 5.344 99.6467 5.208 100.607 5.208C102.399 5.208 103.791 5.656 104.783 6.552C105.791 7.448 106.295 8.728 106.295 10.392V14.4C106.295 14.736 106.351 14.976 106.463 15.12C106.591 15.264 106.791 15.352 107.063 15.384V18C106.775 18.048 106.511 18.088 106.271 18.12C106.047 18.152 105.855 18.168 105.695 18.168C105.055 18.168 104.567 18.024 104.231 17.736C103.911 17.448 103.711 17.096 103.631 16.68L103.559 16.032C103.015 16.736 102.335 17.28 101.519 17.664C100.703 18.048 99.8707 18.24 99.0227 18.24C98.1907 18.24 97.4387 18.072 96.7667 17.736C96.1107 17.384 95.5907 16.912 95.2067 16.32C94.8387 15.712 94.6547 15.032 94.6547 14.28ZM102.479 14.928C102.655 14.736 102.799 14.544 102.911 14.352C103.023 14.16 103.079 13.984 103.079 13.824V12.552C102.695 12.392 102.279 12.272 101.831 12.192C101.383 12.096 100.959 12.048 100.559 12.048C99.7267 12.048 99.0387 12.232 98.4947 12.6C97.9667 12.952 97.7027 13.424 97.7027 14.016C97.7027 14.336 97.7907 14.64 97.9667 14.928C98.1427 15.216 98.3987 15.448 98.7347 15.624C99.0707 15.8 99.4707 15.888 99.9347 15.888C100.415 15.888 100.887 15.8 101.351 15.624C101.815 15.432 102.191 15.2 102.479 14.928ZM116.836 18.24C115.86 18.24 114.996 18.024 114.244 17.592C113.508 17.144 112.932 16.544 112.516 15.792V23.112H109.3V5.424H112.108V7.584C112.588 6.848 113.196 6.272 113.932 5.856C114.668 5.424 115.508 5.208 116.452 5.208C117.3 5.208 118.076 5.376 118.78 5.712C119.5 6.048 120.124 6.52 120.652 7.128C121.18 7.72 121.588 8.408 121.876 9.192C122.18 9.96 122.332 10.792 122.332 11.688C122.332 12.904 122.092 14.008 121.612 15C121.148 15.992 120.5 16.784 119.668 17.376C118.852 17.952 117.908 18.24 116.836 18.24ZM115.756 15.504C116.252 15.504 116.7 15.4 117.1 15.192C117.5 14.984 117.844 14.704 118.132 14.352C118.436 13.984 118.66 13.576 118.804 13.128C118.964 12.664 119.044 12.184 119.044 11.688C119.044 11.16 118.956 10.672 118.78 10.224C118.62 9.776 118.38 9.384 118.06 9.048C117.74 8.696 117.364 8.424 116.932 8.232C116.516 8.04 116.06 7.944 115.564 7.944C115.26 7.944 114.948 8 114.628 8.112C114.324 8.208 114.028 8.352 113.74 8.544C113.452 8.736 113.196 8.96 112.972 9.216C112.764 9.472 112.612 9.752 112.516 10.056V13.008C112.708 13.472 112.964 13.896 113.284 14.28C113.62 14.664 114.004 14.968 114.436 15.192C114.868 15.4 115.308 15.504 115.756 15.504Z" fill="#0FAE96"/>
</svg>
